<?xml version="1.0" encoding="utf-8"?>
<!-- Generator: Adobe Illustrator 26.0.0, SVG Export Plug-In . SVG Version: 6.00 Build 0)  -->
<svg version="1.1" id="Capa_1" xmlns="http://www.w3.org/2000/svg" xmlns:xlink="http://www.w3.org/1999/xlink" x="0px" y="0px"
	 viewBox="0 0 1080 1080" style="enable-background:new 0 0 1080 1080;" xml:space="preserve">
<style type="text/css">
	.st0{clip-path:url(#SVGID_00000053532696535777614260000002243068341052848573_);fill:#F2E500;}
	.st1{clip-path:url(#SVGID_00000053532696535777614260000002243068341052848573_);}
	.st2{fill:#68B32E;}
	.st3{fill:#F2E500;}
	.st4{fill:#EB661B;}
	.st5{fill:#E42520;}
	.st6{fill:#6DC5D6;}
	.st7{fill:#2A4B9A;}
	.st8{fill:#554595;}
	.st9{fill:#FFFFFF;stroke:#1D1D1B;stroke-width:2.7488;stroke-miterlimit:10;}
	.st10{fill:#1D1D1B;}
</style>
<g>
	<g>
		<defs>
			<path id="SVGID_1_" d="M913.63,279.45c0,0-28.42-98.25-30.35-105.1c-1.93-6.84-6.84-19.3-11.76-20.18
				c-4.91-0.88-14.04,8.77-26.49,29.83c-12.46,21.05-71.59,21.41-88.25,15.09c-16.67-6.32-8.6-21.23-8.6-21.23l9.12-12.28
				c9.47-25.44-19.12-27.55-19.12-27.55h-9.47c2.28-27.02-17.19-26.32-17.19-26.32h-2.98l-6.14-6.32h-9.83V91.71H387.44v13.69h-9.83
				l-6.14,6.32h-2.98c0,0-19.48-0.7-17.19,26.32h-9.47c0,0-28.6,2.11-19.12,27.55l9.12,12.28c0,0,8.07,14.91-8.6,21.23
				s-75.8,5.97-88.25-15.09c-12.46-21.05-21.58-30.7-26.49-29.83c-4.91,0.88-9.83,13.33-11.76,20.18
				c-1.93,6.84-30.35,105.1-30.35,105.1s-5.26,16.14,12.98,11.58c18.25-4.56,52.11-16.32,61.58,26.49
				c9.47,42.81-6.49,102.29-27.2,157.73c-20.7,55.44-69.48,271.25,169.49,423.9c0,0,49.83,25.97,75.45,37.2
				c25.62,11.23,69.3,34.74,81.15,51.93h0.35c11.84-17.2,55.53-40.7,81.15-51.93c25.62-11.23,75.45-37.2,75.45-37.2
				c238.97-152.65,190.19-368.46,169.49-423.9c-20.7-55.44-36.67-114.92-27.2-157.73c9.47-42.81,43.34-31.06,61.58-26.49
				S913.63,279.45,913.63,279.45z"/>
		</defs>
		<use xlink:href="#SVGID_1_"  style="overflow:visible;fill:#FFFFFF;"/>
		<clipPath id="SVGID_00000094605343103490131310000000411941310822731937_">
			<use xlink:href="#SVGID_1_"  style="overflow:visible;"/>
		</clipPath>
		<path style="clip-path:url(#SVGID_00000094605343103490131310000000411941310822731937_);fill:#F2E500;" d="M709.19,515.19
			c-8.04-5.06-26.72-4.37-38.85-3.26c-1.66-5.78-3.68-11.4-6.05-16.83c8.01-4.96,23.2-13.67,29.67-12.77
			c8.99,1.25,21.14-1.3,29.04-9.24c7.89-7.94,28.35-14.91,28.35-14.91c-26.06-10.05-39.1,15.63-53.16,11.58
			c-10.28-2.96-31.52,4.85-42.2,9.26c-1.9-3.14-3.91-6.19-6.05-9.16c7.25-6.48,18.05-15.26,23.75-15.57
			c9.06-0.5,20.5-5.33,26.72-14.64c6.22-9.31,24.96-20.08,24.96-20.08c-27.51-4.86-35.37,22.85-49.95,21.57
			c-9.63-0.84-26.34,8.65-36.58,15.2c-3.14-3.35-6.45-6.53-9.9-9.53c5.03-8.35,13.17-20.61,18.7-22.62
			c8.53-3.11,18.07-11.06,21.32-21.77c3.25-10.71,18.05-26.46,18.05-26.46c-27.74,3.33-27.21,32.13-41.53,35.14
			c-9.42,1.98-22.6,15.83-30.51,25.08c-3.31-2.18-6.71-4.22-10.21-6.1c3.14-9.19,8.18-21.9,12.93-24.94
			c7.65-4.89,15.23-14.72,16.08-25.88c0.85-11.16,11.87-29.75,11.87-29.75c-26.35,9.28-19.58,37.28-32.91,43.33
			c-8.49,3.85-17.98,19.31-23.76,30.04c-3.25-1.23-6.56-2.33-9.93-3.29c0.76-9.11,2.34-19.83,5.63-23.46
			c6.09-6.73,10.82-18.21,8.7-29.2c-2.12-10.99,3.63-31.82,3.63-31.82c-22.98,15.89-9.08,41.12-20.35,50.46
			c-6.26,5.19-10.93,19.11-13.86,30.46c-6.43-0.98-13.01-1.49-19.7-1.49c-1.06,0-2.12,0.02-3.18,0.04
			c-1.14-8.74-1.75-18.68,0.54-22.72c4.47-7.9,6.58-20.13,2.11-30.4c-4.47-10.26-3.42-31.85-3.42-31.85
			c-18.95,20.53,0.13,42.11-8.82,53.69c-4.96,6.43-6.48,21-6.86,32.71c-7.79,1.18-15.37,3.06-22.66,5.56
			c-3.45-9.11-7.89-22.69-6.1-28.2c2.81-8.63,2.43-21.04-4-30.21c-6.43-9.17-9.7-30.52-9.7-30.52
			c-14.48,23.89,8.52,41.24,2.06,54.37c-4.5,9.14-1.12,29.79,1.34,41.49c-3.15,1.59-6.24,3.31-9.24,5.15
			c-5.16-8.27-12.18-20.76-11.49-26.52c1.08-9.01-1.7-21.11-9.79-28.86s-15.45-28.06-15.45-28.06
			c-9.56,26.25,16.37,38.8,12.59,52.93c-2.67,9.96,4.86,29.91,9.54,40.82c-2.97,2.42-5.84,4.96-8.59,7.63
			c-7.45-5.98-20.19-16.99-21.48-23.24c-1.84-8.89-8.33-19.48-18.46-24.24s-23.57-21.69-23.57-21.69
			c-0.71,27.93,27.86,31.57,28.77,46.18c0.66,10.57,14.85,27.69,22.65,36.36c-2.03,2.56-3.97,5.21-5.81,7.92
			c-8.63-4.03-23.77-11.77-26.52-17.57c-3.89-8.2-12.7-16.95-23.67-19.19c-10.97-2.24-28.03-15.5-28.03-15.5
			c5.91,27.3,34.54,24.09,38.88,38.06c3.1,9.98,20.52,23.05,30.23,29.71c-1.36,2.72-2.63,5.49-3.81,8.31
			c-9.39-1.82-21.52-4.87-25.01-8.91c-5.94-6.86-16.76-12.95-27.93-12.17c-11.17,0.77-31.15-7.45-31.15-7.45
			c12.99,24.73,39.72,13.99,47.63,26.31c4.71,7.33,19.58,14.07,30.86,18.33c-1.45,5.16-2.59,10.46-3.44,15.85
			c-9.05,0.64-19.68,0.7-23.73-1.95c-7.59-4.98-19.66-7.88-30.2-4.08c-10.53,3.8-32,1.34-32,1.34c19.25,20.25,42.03,2.61,53,12.3
			c5.94,5.24,19.85,7.72,31.35,8.89c-0.06,1.69-0.1,3.39-0.1,5.09c0,74.95,59.39,135.71,132.64,135.71
			c73.26,0,132.64-60.76,132.64-135.71c0-7.27-0.56-14.4-1.64-21.35c9.38-2.41,22.49-5.09,27.57-2.82
			c8.29,3.7,20.67,4.63,30.46-0.81c9.79-5.43,31.37-6.45,31.37-6.45C741.23,501.94,721.57,522.99,709.19,515.19z"/>
		<g style="clip-path:url(#SVGID_00000094605343103490131310000000411941310822731937_);">
			<polygon class="st2" points="450.43,1038.12 539.65,492.01 625.18,986.53 			"/>
			<polygon class="st3" points="767.3,924.42 539.65,492.01 625.18,986.53 			"/>
			<polygon class="st4" points="866.96,810.73 539.65,492.01 767.3,924.42 			"/>
			<polygon class="st5" points="911.52,654.92 539.65,492.01 866.96,810.73 			"/>
			<polygon class="st6" points="290.41,948.64 539.65,492.01 450.43,1038.12 			"/>
			<polygon class="st7" points="201.98,843.36 539.65,492.01 290.41,948.64 			"/>
			<polygon class="st8" points="117.77,661.24 539.65,492.01 201.98,843.36 			"/>
		</g>
		<use xlink:href="#SVGID_1_"  style="overflow:visible;fill:none;stroke:#010202;stroke-width:10.308;stroke-miterlimit:10;"/>
	</g>
	<polygon class="st2" points="593.42,135.58 540.02,295.09 488.68,135.58 434.29,298.05 472.89,298.05 472.89,324.37 506.57,324.37 
		506.57,298.05 539.03,298.05 540.97,298.05 577.63,298.05 577.63,324.37 611.32,324.37 611.32,298.05 645.72,298.05 	"/>
	<g>
		<path class="st9" d="M599.56,645.45v-8.6c-0.23-5.03-2.98-7.49-6.14-11.35c-3.16-3.86-0.29-4.74,0.82-10.59
			c1.11-5.85-5.25-6.84-5.25-6.84h-46.14c0,0-6.36,0.99-5.25,6.84c1.11,5.85,3.98,6.73,0.82,10.59c-3.16,3.86-5.91,6.32-6.14,11.35
			v8.6V784.8c0,9.67,7.84,17.5,17.5,17.5h32.37c9.67,0,17.5-7.84,17.5-17.5V645.45H599.56z"/>
		<path class="st10" d="M518.15,752.3c0,0-0.18,32.99,0.88,40s3.68,18.07-13.16,27.02c0,0-7.37-0.53-5.97-6.14
			c1.4-5.61,5.09-8.95,7.02-17.37c1.93-8.42,0.35-32.28,0.35-36.49C507.28,755.11,518.15,752.3,518.15,752.3z"/>
		<path class="st9" d="M668.87,742.12c0,0-11.93-3.33-14.56,6.84s-1.75,37.2-1.75,44.39s0.92,11.97-0.79,15.79
			s-9.21,14.61-14.21,14.74c-5,0.13-5.13-10.92-1.05-15.4s3.95-17.37,3.29-26.45s0-13.29,0-13.29s-7.11,0.26-8.69,5.26
			c-1.58,5-2.89,11.19-2.63,20.27s0.92,28.16-0.39,31.98c-1.32,3.82-12.76,12.24-16.45,10.4s-3.29-11.05,1.97-19.48
			c5.26-8.42,2.63-31.85,2.37-35.4s-18.42-15.13-22.77-18.82c-4.34-3.68-7.76,6.32-28.69,3.82c-20.92-2.5-37.24-8.55-43.69-6.84
			c0,0-4.08,0.44-7.41,3.25c-3.33,2.81-14.74-4.74-14.04-13.86c0.7-9.12,74.22-44.39,74.22-44.39l43.43-7.9l40.79-9.21l11.58,12.37
			l2.9,16.32l0.79,18.95L668.87,742.12z"/>
		<path class="st10" d="M681.5,693.17c0,0,0.53,15.97-2.11,24.04c-2.63,8.07-1.4,25.27,0.35,30c1.75,4.74,3.16,19.83,1.23,29.3
			c-1.93,9.47-3.16,17.55-5.97,18.25c-2.81,0.7-11.4-7.54-9.65-13.69c1.75-6.14,6.32-20.18,4.39-25.79
			c-1.93-5.61-4.39-17.19-3.16-22.11c1.23-4.91,4.74-8.07-1.05-11.76c-5.79-3.68-12.11-7.37-15.62-1.75s-9.47,16.32-8.95,24.91
			c0.53,8.6,1.4,23.2,0,23.38c-1.4,0.18-13.16,11.36-16.84,2.41c-3.68-8.95,4.74-13.69,2.11-21.76
			c-2.63-8.07-5.79-21.41-20.18-14.74c-14.39,6.67-12.63,14.04-25.44,18.25s-20.57,0.44-33.34-1.4s-15-8.16-30.4-1.58
			c-15.4,6.58-16.05,7.5-18.16,10.13s-0.53,9.34-0.53,14.08c0,4.74-1.01,28.16-0.83,33.6s0.7,8.33-1.84,12.02
			c-2.54,3.68-10.62,10.35-15.35,7.46s1.84-13.73,5.4-18.2s0.66-26.58,0.66-33.29c0-6.71-1.58-14.61-2.24-17.5
			s-20-10.66-25.27-31.32c-5.26-20.66-12.85-42.24-38.29-45.75c-25.44-3.51-34.21,0.09-38.42-5.31c-4.21-5.4,0.92-9.74,7.9-13.29
			c6.97-3.55,23.16-15.79,26.32-24.08c3.16-8.29,6.45-5.66,10.13-2.76c3.68,2.9,23.03,11.05,37.64,13.55
			c14.61,2.5,82.6,3.82,108.74,0.48c26.14-3.33,40.53-4.91,62.99,0.53c22.46,5.44,31.06,15.09,35.79,18.77
			S684.13,681.24,681.5,693.17z"/>
	</g>
</g>
</svg>
