<svg id="Capa_1" data-name="Capa 1" xmlns="http://www.w3.org/2000/svg" xmlns:xlink="http://www.w3.org/1999/xlink" viewBox="0 0 841.89 595.28"><defs><style>.cls-1,.cls-2{fill:#1d1d1b;}.cls-2{fill-rule:evenodd;}.cls-3{fill:url(#Degradado_sin_nombre_11);}.cls-4{fill:url(#Degradado_sin_nombre_27);}.cls-5{fill:#fff;}</style><radialGradient id="Degradado_sin_nombre_11" cx="414.86" cy="227.56" fx="369.36682453523156" fy="192.22072035596523" r="94.76" gradientUnits="userSpaceOnUse"><stop offset="0" stop-color="#fce750"/><stop offset="1" stop-color="#e2a100"/></radialGradient><radialGradient id="Degradado_sin_nombre_27" cx="413.65" cy="227.27" r="81.76" gradientUnits="userSpaceOnUse"><stop offset="0" stop-color="#3e6532"/><stop offset="1" stop-color="#1f2919"/></radialGradient></defs><path class="cls-1" d="M130,425.83c0,11.44,1.48,24.51,13.51,24.51a20.12,20.12,0,0,0,11.29-3.73c3.68-2.1,5.4-3.74,6.62-3.74a2.38,2.38,0,0,1,2.46,2.34c0,4.66-14.48,17.27-31.91,17.27-8.1,0-15.22-2.57-19.64-7.24-6.14-6.53-6.38-12.84-6.38-27.77v-57.9c0-4.2-1-4.66-3.68-4.66H95.65c-3,0-5.4-.47-5.4-3s1.72-3.27,4.66-4.43c11.29-5.84,20.62-11.21,27.5-25.45,1.22-2.8,2.2-4.2,4.66-4.2,2.7,0,2.94,1.87,2.94,3.5v19.38c0,3,.25,4.9,3.93,5.13,6.87,0,17.92-.47,25-.47,2.7,0,2.7,1.64,2.7,4.44,0,5.14-.74,5.83-4.17,5.83-5.65,0-12.77-.46-18.66-.46-7.61,0-8.84,0-8.84,6.07Z"/><path class="cls-1" d="M130,425.83c0,11.44,1.48,24.51,13.51,24.51a20.12,20.12,0,0,0,11.29-3.73c3.68-2.1,5.4-3.74,6.62-3.74a2.38,2.38,0,0,1,2.46,2.34c0,4.66-14.48,17.27-31.91,17.27-8.1,0-15.22-2.57-19.64-7.24-6.14-6.53-6.38-12.84-6.38-27.77v-57.9c0-4.2-1-4.66-3.68-4.66H95.65c-3,0-5.4-.47-5.4-3s1.72-3.27,4.66-4.43c11.29-5.84,20.62-11.21,27.5-25.45,1.22-2.8,2.2-4.2,4.66-4.2,2.7,0,2.94,1.87,2.94,3.5v19.38c0,3,.25,4.9,3.93,5.13,6.87,0,17.92-.47,25-.47,2.7,0,2.7,1.64,2.7,4.44,0,5.14-.74,5.83-4.17,5.83-5.65,0-12.77-.46-18.66-.46-7.61,0-8.84,0-8.84,6.07Z"/><path class="cls-1" d="M198.25,397.59c-8.35,0-9.57,0-9.57,6.53,0,24.05,16.69,45.29,44.18,45.29,12.52,0,21.11-4.2,27-8.64,4.17-3.27,6.38-5.6,7.86-5.6a2.52,2.52,0,0,1,2.7,2.57c0,2.8-6.63,8.87-9.58,11.2-10.8,8.87-23.32,13.54-40.25,13.54-35.11,0-57.93-25.44-57.93-53.69,0-37.35,34.61-55.09,63.33-55.09,30.44,0,46.14,18.91,46.14,37.82,0,4.43-1.71,6.07-4.91,6.07Zm-7.86-11c0,2.81,1.72,3.5,7.61,3.5,5.65,0,11.79,0,17.68-.23,6.87,0,18.9-.7,24.79-2.8,4.42-1.17,7.61-3.73,7.61-8.87,0-4.43-3.93-18.67-24.3-18.67-21.36,0-33.39,18.44-33.39,26.84Z"/><path class="cls-1" d="M198.25,397.59c-8.35,0-9.57,0-9.57,6.53,0,24.05,16.69,45.29,44.18,45.29,12.52,0,21.11-4.2,27-8.64,4.17-3.27,6.38-5.6,7.86-5.6a2.52,2.52,0,0,1,2.7,2.57c0,2.8-6.63,8.87-9.58,11.2-10.8,8.87-23.32,13.54-40.25,13.54-35.11,0-57.93-25.44-57.93-53.69,0-37.35,34.61-55.09,63.33-55.09,30.44,0,46.14,18.91,46.14,37.82,0,4.43-1.71,6.07-4.91,6.07Zm-7.86-11c0,2.81,1.72,3.5,7.61,3.5,5.65,0,11.79,0,17.68-.23,6.87,0,18.9-.7,24.79-2.8,4.42-1.17,7.61-3.73,7.61-8.87,0-4.43-3.93-18.67-24.3-18.67-21.36,0-33.39,18.44-33.39,26.84Z"/><path class="cls-1" d="M292.75,326.86c0-12.14-3.44-12.38-11.79-12.84-3.43-.47-5.39-.94-5.39-3.27,0-2.1,2.21-3,5.15-3.27,8.84-.93,19.64-3.5,27.49-7.7,1.72-1.17,4.17-2.57,5.89-2.57,2.46,0,2.7,1.17,2.7,4.9v97.58c0,2.56,0,5.37,1.48,5.37s4.17-2.34,6.38-4.21l28.72-21.71c3.68-2.8,9.82-7.47,9.82-11.2,0-4-4.91-4.2-8.35-4.67-2.7,0-8.84.23-8.84-4,0-2.8,2.21-2.8,5.9-2.8,6.38.47,14,.7,21.6.7,8.59,0,17.42-.23,24.05-.7,4.42,0,6.14,0,6.14,3s-2.95,3.26-6.14,3.5c-10.8.46-16.69,4.9-25.28,10.74-5.4,4-11.78,8.63-17.43,12.6-1.72,1.4-5.64,4-5.64,6.07,0,1.87,2.2,3.74,3.92,6.07,11.29,14,22.58,28.25,33.63,42.25,6.87,8.87,11.05,12.61,16,12.61,3.19.23,7.61.7,7.61,3.73,0,2.8-2.46,3.27-4.67,3.27-8.84,0-17.67-.93-26.51-.93-8.59,0-17.67.93-26.51.93-1.72,0-3.68-.23-3.68-3s3.44-3.26,5.65-3.5c2.94-.23,6.38-.7,6.38-4.2,0-2.57-3.44-6.77-5.16-9.1l-19.14-25.21c-3.19-4-5.9-7.94-8.1-7.94s-11.79,5.84-11.79,11.44v23.34c0,8.4,3.93,11.21,8.59,11.44,2.46.23,7.37.7,7.37,3.5,0,2.57-2,3.27-4.42,3.27-7.85,0-16.2-.93-23.81-.93-8.59,0-17.43.93-26,.93-2,0-4.17-.47-4.17-2.8,0-3.74,3.93-3.74,7.12-4,10.55-.23,11.29-4.9,11.29-15.41Z"/><path class="cls-1" d="M292.75,326.86c0-12.14-3.44-12.38-11.79-12.84-3.43-.47-5.39-.94-5.39-3.27,0-2.1,2.21-3,5.15-3.27,8.84-.93,19.64-3.5,27.49-7.7,1.72-1.17,4.17-2.57,5.89-2.57,2.46,0,2.7,1.17,2.7,4.9v97.58c0,2.56,0,5.37,1.48,5.37s4.17-2.34,6.38-4.21l28.72-21.71c3.68-2.8,9.82-7.47,9.82-11.2,0-4-4.91-4.2-8.35-4.67-2.7,0-8.84.23-8.84-4,0-2.8,2.21-2.8,5.9-2.8,6.38.47,14,.7,21.6.7,8.59,0,17.42-.23,24.05-.7,4.42,0,6.14,0,6.14,3s-2.95,3.26-6.14,3.5c-10.8.46-16.69,4.9-25.28,10.74-5.4,4-11.78,8.63-17.43,12.6-1.72,1.4-5.64,4-5.64,6.07,0,1.87,2.2,3.74,3.92,6.07,11.29,14,22.58,28.25,33.63,42.25,6.87,8.87,11.05,12.61,16,12.61,3.19.23,7.61.7,7.61,3.73,0,2.8-2.46,3.27-4.67,3.27-8.84,0-17.67-.93-26.51-.93-8.59,0-17.67.93-26.51.93-1.72,0-3.68-.23-3.68-3s3.44-3.26,5.65-3.5c2.94-.23,6.38-.7,6.38-4.2,0-2.57-3.44-6.77-5.16-9.1l-19.14-25.21c-3.19-4-5.9-7.94-8.1-7.94s-11.79,5.84-11.79,11.44v23.34c0,8.4,3.93,11.21,8.59,11.44,2.46.23,7.37.7,7.37,3.5,0,2.57-2,3.27-4.42,3.27-7.85,0-16.2-.93-23.81-.93-8.59,0-17.43.93-26,.93-2,0-4.17-.47-4.17-2.8,0-3.74,3.93-3.74,7.12-4,10.55-.23,11.29-4.9,11.29-15.41Z"/><path class="cls-1" d="M438.79,392c0-12.84-1-15.4-9.08-15.64-4.66-.23-6.62-.46-6.62-2.8,0-3.27,3.68-3.5,6.87-4.2,6.38-1.4,19.14-7,25-12.84,1.71-1.63,2.94-3.5,5.15-3.5,2.45,0,2.45,2.1,2.45,4.44v10c0,2.8,0,4.2,1,4.2s6.13-4.43,12.27-8.63c6.63-4.9,15.95-9.34,27-9.34,10.06,0,20.62,3.27,28,11.44,7.12,7.94,8.1,17.51,8.1,30.81v39.68c0,11.21.25,17.51,10.8,18,3,.23,6.88.47,6.88,3.73,0,2.34-2,3-3.44,3-7.61,0-18.9-.93-27-.93-8.35,0-16.2.93-22.83.93-2,0-3.93-.47-3.93-3,0-3,3.44-3.26,6.14-3.73,9.33-.47,9.33-6.3,9.33-18V398.05c0-6.53,0-14.94-3.68-20.77-4.18-6.07-11.54-9.81-20.38-9.81a29.77,29.77,0,0,0-21.35,8.64c-6.14,6.07-6.63,11-6.63,18.91v40.61c0,11.68,0,17.51,9.57,18,2.21.23,6.14.47,6.14,3.5,0,2.1-1.72,3.27-3.93,3.27-6.87,0-16.44-.93-25-.93-9.57,0-17.42.93-24.54.93-1.47,0-3.93-.47-3.93-2.8,0-3.5,3.68-3.74,6.87-4,10.8-.47,10.8-6.3,10.8-20.78Z"/><path class="cls-1" d="M438.79,392c0-12.84-1-15.4-9.08-15.64-4.66-.23-6.62-.46-6.62-2.8,0-3.27,3.68-3.5,6.87-4.2,6.38-1.4,19.14-7,25-12.84,1.71-1.63,2.94-3.5,5.15-3.5,2.45,0,2.45,2.1,2.45,4.44v10c0,2.8,0,4.2,1,4.2s6.13-4.43,12.27-8.63c6.63-4.9,15.95-9.34,27-9.34,10.06,0,20.62,3.27,28,11.44,7.12,7.94,8.1,17.51,8.1,30.81v39.68c0,11.21.25,17.51,10.8,18,3,.23,6.88.47,6.88,3.73,0,2.34-2,3-3.44,3-7.61,0-18.9-.93-27-.93-8.35,0-16.2.93-22.83.93-2,0-3.93-.47-3.93-3,0-3,3.44-3.26,6.14-3.73,9.33-.47,9.33-6.3,9.33-18V398.05c0-6.53,0-14.94-3.68-20.77-4.18-6.07-11.54-9.81-20.38-9.81a29.77,29.77,0,0,0-21.35,8.64c-6.14,6.07-6.63,11-6.63,18.91v40.61c0,11.68,0,17.51,9.57,18,2.21.23,6.14.47,6.14,3.5,0,2.1-1.72,3.27-3.93,3.27-6.87,0-16.44-.93-25-.93-9.57,0-17.42.93-24.54.93-1.47,0-3.93-.47-3.93-2.8,0-3.5,3.68-3.74,6.87-4,10.8-.47,10.8-6.3,10.8-20.78Z"/><path class="cls-1" d="M626.32,378.91c0-9.8-.49-18.67-13.74-18.67s-19.64,7.23-25,18.2c-2.21,4.21-4.42,7.94-9.33,9.81-2.7.93-7.36,2.57-10.55,2.57s-4.91-1.4-4.91-4.44c0-12.6,23.32-32.68,56.21-32.68,8.34,0,19.88,1.4,26.51,6.77,4.91,4,4.91,7.7,4.91,18.44V431.2c0,6.54.49,17,8.1,17a10.24,10.24,0,0,0,7.11-2.8c1.72-1.63,2.95-3,4.18-3s1.72,1.64,1.72,3.51c0,5.36-15.22,15.4-26.27,15.4-8.84,0-12.52-7.47-16-12.37-1.23-1.63-2.21-3-3.19-3-1.23,0-6.39,4.66-13,8.63-7.12,4.21-16.21,7.94-26.27,7.94-13.25,0-24.3-7.7-24.3-19.84,0-16.34,19.64-25.21,35.59-32.68,6.38-2.57,12.52-5.37,19.15-8.41,9.08-4,9.08-4.43,9.08-12.13ZM586.8,436.1c0,8.41,6.63,13.07,15,13.07a27.17,27.17,0,0,0,19.64-8.63c4.91-5.14,4.91-9.11,4.91-15.41V411.36c0-4.2,0-5.84-1-5.84-1.47,0-3.19.94-5.65,2.1-5.4,2.57-11.29,5.61-16.93,8.41-8.1,4.43-16,10-16,19.84Z"/><path class="cls-1" d="M626.32,378.91c0-9.8-.49-18.67-13.74-18.67s-19.64,7.23-25,18.2c-2.21,4.21-4.42,7.94-9.33,9.81-2.7.93-7.36,2.57-10.55,2.57s-4.91-1.4-4.91-4.44c0-12.6,23.32-32.68,56.21-32.68,8.34,0,19.88,1.4,26.51,6.77,4.91,4,4.91,7.7,4.91,18.44V431.2c0,6.54.49,17,8.1,17a10.24,10.24,0,0,0,7.11-2.8c1.72-1.63,2.95-3,4.18-3s1.72,1.64,1.72,3.51c0,5.36-15.22,15.4-26.27,15.4-8.84,0-12.52-7.47-16-12.37-1.23-1.63-2.21-3-3.19-3-1.23,0-6.39,4.66-13,8.63-7.12,4.21-16.21,7.94-26.27,7.94-13.25,0-24.3-7.7-24.3-19.84,0-16.34,19.64-25.21,35.59-32.68,6.38-2.57,12.52-5.37,19.15-8.41,9.08-4,9.08-4.43,9.08-12.13ZM586.8,436.1c0,8.41,6.63,13.07,15,13.07a27.17,27.17,0,0,0,19.64-8.63c4.91-5.14,4.91-9.11,4.91-15.41V411.36c0-4.2,0-5.84-1-5.84-1.47,0-3.19.94-5.65,2.1-5.4,2.57-11.29,5.61-16.93,8.41-8.1,4.43-16,10-16,19.84Z"/><path class="cls-1" d="M694.06,332.46c0-16.81,0-18-12.27-18.68-2.7-.23-4.91-.46-4.91-3,0-2.33,2.21-2.8,6.14-3.27,9.57-1.17,19.88-3.5,26-7.7,2-.93,4.42-2.57,6.63-2.57,2.45,0,2.45,1.4,2.45,4.9V435.63c0,12.14.24,17.51,10.8,18.21,3,.24,6.87.47,6.87,3.5,0,2.34-2,3-3.68,3-7.85,0-16.69-.94-25-.94-10.55,0-20.12.94-27.49.94-1.72,0-4.17-.47-4.17-2.8,0-3.74,4.17-3.74,7.36-4,11.29-.23,11.29-4.67,11.29-20.78Z"/><path class="cls-1" d="M694.06,332.46c0-16.81,0-18-12.27-18.68-2.7-.23-4.91-.46-4.91-3,0-2.33,2.21-2.8,6.14-3.27,9.57-1.17,19.88-3.5,26-7.7,2-.93,4.42-2.57,6.63-2.57,2.45,0,2.45,1.4,2.45,4.9V435.63c0,12.14.24,17.51,10.8,18.21,3,.24,6.87.47,6.87,3.5,0,2.34-2,3-3.68,3-7.85,0-16.69-.94-25-.94-10.55,0-20.12.94-27.49.94-1.72,0-4.17-.47-4.17-2.8,0-3.74,4.17-3.74,7.36-4,11.29-.23,11.29-4.67,11.29-20.78Z"/><path class="cls-2" d="M739.75,319.57h1.06a2.26,2.26,0,0,0,1.8-.68,3.16,3.16,0,0,0,.59-2.09,2.47,2.47,0,0,0-.57-1.76,2.15,2.15,0,0,0-1.66-.62h-1.22Zm-1.92,3.66V316a2.27,2.27,0,0,0-.29-1.38,1.78,1.78,0,0,0-1.24-.34v-.48h5.18a4.68,4.68,0,0,1,2.81.72,2.44,2.44,0,0,1,1,2.08,3.13,3.13,0,0,1-1.23,2.53,4,4,0,0,1-1.22.67l1.76,2.4c.65.86,1.12,1.45,1.42,1.78a4.84,4.84,0,0,0,.92.8v.26h-2.08a.94.94,0,0,1-.59-.34,6,6,0,0,1-.71-.95l-2.26-3.62a.93.93,0,0,0-.37,0h-1.15v3.07a1.51,1.51,0,0,0,.29,1.1,2,2,0,0,0,1.23.28v.48h-5v-.48a2,2,0,0,0,1.24-.29A1.45,1.45,0,0,0,737.83,323.23ZM750,319.46a9.16,9.16,0,0,0-2.53-6.55,8.57,8.57,0,0,0-12.45,0A9.74,9.74,0,0,0,735,326a8.55,8.55,0,0,0,12.43,0A9.13,9.13,0,0,0,750,319.46Zm-8.75-10.54a10,10,0,0,1,7.42,3.05,10.8,10.8,0,0,1,0,15,10.53,10.53,0,0,1-14.84,0,10.77,10.77,0,0,1,0-15A10,10,0,0,1,741.2,308.92Z"/><circle class="cls-3" cx="414.86" cy="227.56" r="94.76"/><path class="cls-4" d="M335.51,279.33A94.75,94.75,0,1,0,490.2,170.11C410,182,362.75,231.92,335.51,279.33Z"/><path class="cls-5" d="M472.33,215c-11,0-42.79.72-53.42.72-5.69-.36-6.07-3.25-6.07-7.94v-30c0-2.52-.38-5.41-4.56-5.41-3.79,0-5.31,2.16-7.21,6.5-10.62,22-25.05,30.31-42.5,39.33-4.56,1.81-7.21,2.89-7.21,6.86s3.79,4.69,8.35,4.69H370c4.18,0,5.69.73,5.69,7.22v69.37a94.37,94.37,0,0,0,37.2,8.45V239.58c0-9.38,1.89-9.38,13.66-9.38,9.11,0,25.89.71,34.62.71,5.31,0,15.39-1.08,15.39-9C476.51,217.56,476.51,215,472.33,215Z"/></svg>