<svg id="Capa_1" data-name="Capa 1" xmlns="http://www.w3.org/2000/svg" xmlns:xlink="http://www.w3.org/1999/xlink" viewBox="0 0 841.89 595.28"><defs><style>.cls-1,.cls-2,.cls-3{fill-rule:evenodd;}.cls-1{fill:url(#linear-gradient);}.cls-2{fill:url(#linear-gradient-2);}.cls-3{fill:url(#linear-gradient-3);}.cls-4{fill:url(#linear-gradient-4);}.cls-5{fill:url(#linear-gradient-5);}.cls-6{fill:url(#linear-gradient-6);}.cls-7{fill:url(#linear-gradient-7);}.cls-8{fill:url(#linear-gradient-8);}.cls-9{fill:url(#linear-gradient-9);}.cls-10{opacity:0.16;}.cls-11{fill:#fff;}</style><linearGradient id="linear-gradient" x1="336.57" y1="84.13" x2="336.57" y2="261.9" gradientUnits="userSpaceOnUse"><stop offset="0" stop-color="#00416c"/><stop offset="1" stop-color="#0063a2"/></linearGradient><linearGradient id="linear-gradient-2" x1="425.65" y1="246.67" x2="425.65" y2="105.21" gradientUnits="userSpaceOnUse"><stop offset="0" stop-color="#009c39"/><stop offset="0.34" stop-color="#008d33"/><stop offset="0.99" stop-color="#016624"/><stop offset="1" stop-color="#016624"/></linearGradient><linearGradient id="linear-gradient-3" x1="511.58" y1="94.08" x2="511.58" y2="244.39" xlink:href="#linear-gradient"/><linearGradient id="linear-gradient-4" x1="182.5" y1="454.06" x2="182.5" y2="406.63" xlink:href="#linear-gradient"/><linearGradient id="linear-gradient-5" x1="321.62" y1="454.06" x2="321.62" y2="406.63" xlink:href="#linear-gradient"/><linearGradient id="linear-gradient-6" x1="389.64" y1="454.06" x2="389.64" y2="406.63" xlink:href="#linear-gradient"/><linearGradient id="linear-gradient-7" x1="463.26" y1="454.06" x2="463.26" y2="406.63" xlink:href="#linear-gradient"/><linearGradient id="linear-gradient-8" x1="577.52" y1="454.06" x2="577.52" y2="406.63" xlink:href="#linear-gradient"/><linearGradient id="linear-gradient-9" x1="695.47" y1="454.06" x2="695.47" y2="406.63" xlink:href="#linear-gradient"/></defs><path class="cls-1" d="M268.42,157c12.53-.71,27.75,0,42.11-.16,6.34,0,15,3,19.43,9.19q19.6,27.32,39,57.15C382.09,243.42,394.9,264,408,284c4.4,6.73,3,12-3.25,12H367.16c-6.28,0-15-5.65-19.58-12.47-13-19.58-25.94-38.65-39-57-12.9-18.06-30.42-39.63-43.37-57.73C260.69,162.52,262.14,157.36,268.42,157Z"/><path class="cls-2" d="M359.62,157.07a158.62,158.62,0,0,1,37.63,3c6.4,1.36,14.93,10.28,19.57,18.21a618.6,618.6,0,0,0,39,59.49c12.68,16.84,26,32.59,39,48.31,4.49,5.42,3,9.9-3.24,9.9H454c-6.26,0-15.21-4.59-19.57-10.51-13.17-17.85-26-37.45-39-57.61s-25.95-39.82-39-58.58C352,162.9,353.37,157.25,359.62,157.07Z"/><path class="cls-3" d="M450.22,174c23.65,3.66,42.59,4.91,61.35,2.78,18.91-2.14,37.68-7.09,61.38-13.46,6.83-2,8.46,3.53,3.5,12.09-10.17,17.32-19.66,32.8-29.27,47.47-9.36,14.25-18.76,27.86-28.39,42-6.48,9.53-8.65,7.42-14.17.1-10-13.17-19.29-24.91-28.53-37.2-9.47-12.55-18.85-26.1-29.42-42.42C441.77,177.38,443.38,172.29,450.22,174Z"/><polygon class="cls-4" points="94.25 353.73 120.27 353.73 142.73 416.44 147.46 416.44 166.42 353.73 197.22 353.73 216.31 416.44 221.11 416.44 243.69 353.73 270.76 353.73 238.16 437.49 198.76 437.49 181.94 376.06 165.29 437.49 125.8 437.49 94.25 353.73"/><polygon class="cls-5" points="274.98 353.73 367.77 353.73 367.77 373.42 300.14 373.42 300.14 385.53 364.34 385.53 364.34 403.94 300.14 403.94 300.14 417.37 368.26 417.37 368.26 437.49 274.98 437.49 274.98 353.73"/><rect class="cls-6" x="376.24" y="353.73" width="26.81" height="83.76"/><polygon class="cls-7" points="412.77 353.73 513.28 353.73 513.28 372.94 451.92 417.37 515.11 416.57 515.11 437.49 411.41 437.49 411.41 417.91 471.99 373.86 412.77 374.65 412.77 353.73"/><path class="cls-8" d="M523.1,353.73h25.53v38.48q.2,13.26.93,16.76c.64,3.26,2.75,5.43,6.33,6.45s10.82,1.52,21.69,1.52c8.84,0,15-.24,18.39-.77s5.82-1.51,7.27-3a9.43,9.43,0,0,0,2-3.85,47.6,47.6,0,0,0,.87-7.82c.22-3.74.33-6.85.33-9.25V353.73H632v38.48q-.44,20.07-1.3,26.27-1.5,10.54-10,15.45c-3.23,1.89-7.8,3.16-13.68,3.81s-15.55,1-29,1q-15.15,0-23.36-.55a90.06,90.06,0,0,1-14.32-2Q526.8,433,524.5,420a79.45,79.45,0,0,1-1.07-9q-.23-4.06-.33-18.79Z"/><path class="cls-9" d="M643.31,437.49V353.73H705q21.72.06,26,.45a19.39,19.39,0,0,1,8.3,2.86,14.9,14.9,0,0,1,6.56,8q1.77,5.06,1.77,15.91,0,9.15-1.13,13.43a12.74,12.74,0,0,1-4.28,6.87c-2.24,1.85-5.63,3.13-10.17,3.81,5.36.4,9.18,2,11.55,4.61a11.85,11.85,0,0,1,2.57,5.79,118.19,118.19,0,0,1,.54,14.28v7.79H721.56V433a64,64,0,0,0-.52-10,9.19,9.19,0,0,0-1.93-4.58,6.77,6.77,0,0,0-3.89-1.87,82.92,82.92,0,0,0-10.42-.4h-36v21.3Zm25.52-42.22h35.91c6.27-.13,10-.23,11.21-.34a6.78,6.78,0,0,0,3.1-1,5.58,5.58,0,0,0,2.32-3.09,21.47,21.47,0,0,0,.67-6.23,18,18,0,0,0-.77-6.14,5.07,5.07,0,0,0-2.67-2.93,8.83,8.83,0,0,0-3.22-.74q-1.86-.12-10.7-.19H668.83Z"/><g class="cls-10"><path class="cls-11" d="M310.53,156.72c-14.36.12-29.58-.55-42.11.15-6.28.35-7.73,5.51-3.25,11.77,12.95,18.1,30.47,39.67,43.37,57.73,2.42,3.4,4.83,6.93,7.23,10.37,11.45-6.62,27.63-13.4,50.17-18.29q-17.85-27.3-36-52.55C325.51,159.71,316.87,156.67,310.53,156.72Z"/><path class="cls-11" d="M397.25,159.93a158.61,158.61,0,0,0-37.63-3c-6.25.18-7.65,5.83-3.21,12.21,10.24,14.7,20.42,30,30.6,45.61a385.66,385.66,0,0,1,50.44-3.34c-6.91-10.5-13.76-21.55-20.63-33.27C412.18,170.22,403.65,161.3,397.25,159.93Z"/><path class="cls-11" d="M573,163.15c-23.7,6.37-42.47,11.32-61.38,13.47-18.76,2.13-37.7.87-61.35-2.78-6.84-1.68-8.45,3.4-3.55,11.37C453.06,195,459,203.8,464.76,212a745,745,0,0,1,83.5,9c9.24-14.17,18.41-29.12,28.19-45.79C581.41,166.68,579.78,161.17,573,163.15Z"/><path class="cls-11" d="M120.27,353.59h-26l17.8,47.26a187.16,187.16,0,0,1,22.16-8.32Z"/><path class="cls-11" d="M243.69,353.59l-8.17,22.68q12.67-.66,26.73-.83l8.51-21.85Z"/><path class="cls-11" d="M197.22,353.59h-30.8l-10,33c7.13-1.63,15.1-3.18,23.85-4.6l1.65-6.05,1.51,5.53q10-1.54,21.41-2.78Z"/><path class="cls-11" d="M367.77,373.28V353.59H275V375.4q12.09.06,25.16.57v-2.69Z"/><path class="cls-11" d="M376.24,353.59V382c8.68,1,17.64,2.21,26.81,3.51v-32Z"/><path class="cls-11" d="M513.28,353.59H412.77v20.93l59.22-.8-27.7,20.15c8.58,1.88,19.15,4.06,31.24,6.26l37.75-27.33Z"/><path class="cls-11" d="M549.56,408.83q-.73-3.49-.93-16.76V353.59H523.1v38.48c0,7,.13,12.11.21,15.49,8.63,1.11,17.6,2.13,26.84,3A7.51,7.51,0,0,1,549.56,408.83Z"/><path class="cls-11" d="M632,353.59H606.43v38.48c0,2.41-.11,5.51-.33,9.26a47.6,47.6,0,0,1-.87,7.82,9.38,9.38,0,0,1-2,3.84,7.27,7.27,0,0,1-.94.79c9.52.23,19.15.25,28.81,0,.35-4.84.62-12.06.84-21.74Z"/><path class="cls-11" d="M746.51,394.21c.76-2.87,1.13-7.33,1.13-13.43q0-10.87-1.77-15.92a14.9,14.9,0,0,0-6.56-8,19.23,19.23,0,0,0-8.3-2.84c-2.87-.28-11.54-.42-26-.47H643.31v59.8c35.49-1.62,70.91-6.87,102.64-17.84A13.44,13.44,0,0,0,746.51,394.21Zm-25.14-3.46a5.59,5.59,0,0,1-2.32,3.08,6.9,6.9,0,0,1-3.1,1c-1.22.11-4.94.21-11.21.34H668.83V374.52h35.85q8.84.06,10.7.19a8.83,8.83,0,0,1,3.22.73,5.07,5.07,0,0,1,2.67,2.93,18.06,18.06,0,0,1,.77,6.14A21.5,21.5,0,0,1,721.37,390.75Z"/></g></svg>