<svg id="Capa_1" data-name="Capa 1" xmlns="http://www.w3.org/2000/svg" viewBox="0 0 841.89 595.28"><defs><style>.cls-1{fill:#e5870d;fill-rule:evenodd;}</style></defs><path class="cls-1" d="M257.79,234.8H175.16c-11.17,0-24.22-.48-31.5,5.52-8.23,6.7-9.76,14.11-10.82,17.4-1.06,3-12.58,35.14-12.58,35.14s-3.88,9.87,1.06,16.46,13.17,8.81,18.46,8.81h49.84s2.94-.23,3.29.71-1.06,5.29-2.59,9.05-2.7,8-5.17,8H103.34L91.58,368.44H194.43s8.47.83,17.52-6.23,14-26.33,14-26.33l8-22.45s3.88-9.87.47-16.1-8.46-11.17-16.1-11.17H164.93s-3.17.12-2.82-1.88,2.7-7.64,3.29-9.28,2.59-7.76,6.11-7.76h75l11.28-32.44Z"/><polygon class="cls-1" points="263.08 368.44 303.4 368.44 339.72 267.24 382.04 267.24 394.5 234.8 269.08 234.8 257.79 267.24 298.34 267.24 263.08 368.44 263.08 368.44"/><polygon class="cls-1" points="358.41 368.44 398.61 368.44 446.45 234.8 406.84 234.8 358.41 368.44 358.41 368.44"/><polygon class="cls-1" points="475.49 234.8 513.92 234.8 497.94 282.05 547.07 282.05 564.82 234.8 602.67 234.8 555.42 368.44 516.27 368.44 535.2 313.43 486.19 313.43 466.08 368.44 427.53 368.44 475.49 234.8 475.49 234.8"/><polygon class="cls-1" points="631.12 234.8 671.32 234.8 636.4 335.88 721.63 335.88 710.93 368.44 583.16 368.44 631.12 234.8 631.12 234.8"/><path class="cls-1" d="M728,271.59a22.4,22.4,0,1,0-22.33-22.34A22.32,22.32,0,0,0,728,271.59Zm0-5.29a16.56,16.56,0,0,1-17-17.05c0-10,7.29-17.16,17-17.16a17.11,17.11,0,0,1,0,34.21ZM733,250.78c4.11-.35,6.35-2,6.35-6.35,0-6.11-3.65-7.05-9-7.05H719v23.16h5.17v-9.76h3.64l5.18,9.76h5.64L733,250.78Zm-8.82-3.53v-5.87h5c2.24,0,5.3,0,5.3,2.35,0,2.94-1.53,3.52-4.12,3.52Z"/></svg>