<svg id="Capa_1" data-name="Capa 1" xmlns="http://www.w3.org/2000/svg" viewBox="0 0 841.89 595.28"><defs><style>.cls-1{fill:#e5870d;}</style></defs><path class="cls-1" d="M249.53,219.87a17.06,17.06,0,0,1-1.72,1.2c-52.22,36.19-61.57,94.36-59.93,157.5H317.21a107.94,107.94,0,0,0-67.68-158.7Z"/><path class="cls-1" d="M241.71,219.62c.7-.37,1.31-.69,1.95-1.05a111.59,111.59,0,0,0-20.08-1.86A107.92,107.92,0,0,0,130,378.56H159.1C157.32,308.49,174.57,256.48,241.71,219.62Z"/><path d="M356.29,273.84a23.32,23.32,0,0,0,12.09,3.5c4.57,0,8.65-2.52,8.65-8.25,0-4.08-2.37-5.89-7.44-8.67l-5.31-2.95c-5.64-3.09-9.31-7.59-9.31-14.93,0-10.21,8.41-15.53,18-15.53a37.63,37.63,0,0,1,11.93,2l-.48,8.75a27.16,27.16,0,0,0-10.72-2.44c-5.24,0-7.91,2.77-7.91,6.71,0,4.24,2.84,5.86,6,7.66l6.12,3.45c6.7,3.73,9.88,7.34,9.88,15.37,0,11.58-8.24,17.15-19.13,17.15-5.72,0-10.11-.82-13-2.55Z"/><rect x="398.44" y="227.83" width="10.44" height="57.03"/><polygon points="419.74 227.83 430.2 227.83 430.2 276.52 448.98 276.52 448.98 284.87 419.74 284.87 419.74 227.83"/><path d="M476.1,227c11.84,0,22.7,8.81,22.7,29.33s-10.86,29.35-22.7,29.35-22.73-8.83-22.73-29.35S464.24,227,476.1,227m0,50.68c6.61,0,11.93-5.64,11.93-21.35S482.71,235,476.1,235s-11.92,5.64-11.92,21.33,5.27,21.35,11.92,21.35"/><path d="M507.45,227.83h16.67c11.78,0,17.16,4.41,17.16,14,0,9.07-5.71,11.77-9.49,13.17v.16c4.44,1,10.8,4.08,10.8,13.64,0,10.38-7.63,16-17.73,16H507.45Zm10.14,23.86H523c5.16,0,8.18-3.84,8.18-8.51s-3.44-7.67-8.43-7.67h-5.13Zm0,25.16h5.81c5.61,0,8.73-3.42,8.73-8.73,0-5-2.59-8.74-9.08-8.74h-5.46Z"/><path d="M575.79,227c11.84,0,22.72,8.81,22.72,29.33s-10.88,29.35-22.72,29.35-22.73-8.83-22.73-29.35S563.93,227,575.79,227m0,50.68c6.61,0,11.93-5.64,11.93-21.35S582.4,235,575.79,235s-11.95,5.64-11.95,21.33,5.31,21.35,11.95,21.35"/><polygon points="605.65 227.83 616.12 227.83 616.12 276.52 634.89 276.52 634.89 284.87 605.65 284.87 605.65 227.83"/><path d="M640.83,273.84a23.46,23.46,0,0,0,12.1,3.5c4.6,0,8.66-2.52,8.66-8.25,0-4.08-2.35-5.89-7.42-8.67l-5.31-2.95c-5.66-3.09-9.31-7.59-9.31-14.93,0-10.21,8.39-15.53,18-15.53a37.59,37.59,0,0,1,11.91,2l-.48,8.75a27.19,27.19,0,0,0-10.71-2.44c-5.23,0-7.93,2.77-7.93,6.71,0,4.24,2.87,5.86,6.06,7.66l6.12,3.45c6.72,3.73,9.89,7.34,9.89,15.37,0,11.58-8.26,17.15-19.12,17.15-5.72,0-10.15-.82-13-2.55Z"/><path d="M711.52,271.12H691.88l-4.07,13.75H677.35l19.14-57h11.43l18.39,57H715.53Zm-2.22-8-7.17-26.66H702l-7.85,26.66Z"/><path d="M357.26,307.24H373.7a46.26,46.26,0,0,1,9.27,1,29.49,29.49,0,0,1,8.81,3.31,13.94,13.94,0,0,1,3.7,3.08,16.11,16.11,0,0,1,2.49,4.05,20.91,20.91,0,0,1,1.37,4.72,30.79,30.79,0,0,1,.42,5.1,25.25,25.25,0,0,1-1.9,10.37,18.55,18.55,0,0,1-5.17,6.88,20.08,20.08,0,0,1-7.66,3.82,36,36,0,0,1-9.38,1.18H370v26.61H357.26ZM370,339.68h4.74a19.26,19.26,0,0,0,4.52-.51,10.23,10.23,0,0,0,3.75-1.72,8.4,8.4,0,0,0,2.57-3.21,11.66,11.66,0,0,0,.95-5,12.47,12.47,0,0,0-.95-5.17,8.74,8.74,0,0,0-2.62-3.36,10.58,10.58,0,0,0-3.85-1.84,19,19,0,0,0-4.68-.56H370Z"/><path d="M408.85,307.24h12.71v59.05h24.6v11H408.85Z"/><path d="M472.35,307.24h14.36l24.86,70.08H497.52l-5.45-16.07h-25.7l-5.54,16.07H447.67Zm7,14.07h-.17L470,350.22h18.53Z"/><path d="M553.8,320.13a31.45,31.45,0,0,0-6.31-2.25,27.67,27.67,0,0,0-6.58-.79,12.87,12.87,0,0,0-3.95.59,8.27,8.27,0,0,0-5.25,4.83,11,11,0,0,0-.77,4.33,5.72,5.72,0,0,0,.93,3.26,9.43,9.43,0,0,0,2.48,2.48,22.71,22.71,0,0,0,3.59,2c1.36.62,2.79,1.25,4.3,1.91s3,1.35,4.54,2.11a28,28,0,0,1,4.36,2.67,21.21,21.21,0,0,1,3.77,3.57,16.46,16.46,0,0,1,2.7,4.78,16,16,0,0,1,.85,3.8c.14,1.39.22,2.69.22,3.89a22.63,22.63,0,0,1-1.95,9.88,18.06,18.06,0,0,1-5.23,6.57,21,21,0,0,1-7.58,3.65,35.34,35.34,0,0,1-9,1.13,41.43,41.43,0,0,1-8.19-.81q-4-.81-8.07-1.94l1.2-12.64a29,29,0,0,0,6.93,3.18,25.13,25.13,0,0,0,7.43,1.13A15.39,15.39,0,0,0,538,367a11.92,11.92,0,0,0,3.63-1.62,9.25,9.25,0,0,0,2.7-2.8,7.5,7.5,0,0,0,1.07-4.09,10.14,10.14,0,0,0-.25-2.25,6.31,6.31,0,0,0-.82-2.06,8.24,8.24,0,0,0-1.44-1.67,13.17,13.17,0,0,0-1.75-1.37,36.34,36.34,0,0,0-4.69-2.5q-2.44-1.08-4.83-2.1a23.74,23.74,0,0,1-2.53-1.25c-.83-.48-1.64-1-2.44-1.55a28.65,28.65,0,0,1-3.9-3.08,16.38,16.38,0,0,1-2.81-3.56,15.65,15.65,0,0,1-1.71-4.31,22.84,22.84,0,0,1-.57-5.32,31,31,0,0,1,.37-4.8,21.85,21.85,0,0,1,1.22-4.56,19.41,19.41,0,0,1,2.17-4,14.3,14.3,0,0,1,3.19-3.26,21.89,21.89,0,0,1,7.25-3.6,28.87,28.87,0,0,1,7.91-1.1,50.37,50.37,0,0,1,7.69.58,41.42,41.42,0,0,1,7.51,1.92Z"/><path d="M581.77,318.32H563.6V307.24h49v11.08H594.49v59H581.77Z"/><path d="M631.58,307.24h14.36l24.86,70.08h-14l-5.45-16.07H625.6l-5.54,16.07H606.9Zm7,14.07h-.17l-9.18,28.91h18.53Z"/><path d="M677.89,307.24h17.37q3.15,0,6.32.15a39.05,39.05,0,0,1,6.07.74,23.52,23.52,0,0,1,5.43,1.78,13.79,13.79,0,0,1,4.39,3.31,15.2,15.2,0,0,1,2.92,5.29,24.66,24.66,0,0,1,1.07,7.75,19.08,19.08,0,0,1-.94,6.1,15.11,15.11,0,0,1-2.66,4.87,14.27,14.27,0,0,1-4.14,3.46,15.74,15.74,0,0,1-5.34,1.79v.19a5.83,5.83,0,0,1,2.37.88,8.44,8.44,0,0,1,1.86,1.67,10.58,10.58,0,0,1,1.42,2.21c.4.81.76,1.65,1.08,2.5l10.16,27.39H711.13l-7.62-21.86a32.57,32.57,0,0,0-1.4-3.4,7.33,7.33,0,0,0-1.66-2.26,5.74,5.74,0,0,0-2.35-1.22,13.2,13.2,0,0,0-3.41-.37h-4.08v29.11H677.89Zm12.72,29.94h4.16c1,0,2.1-.05,3.29-.14a18.4,18.4,0,0,0,3.5-.64,12.81,12.81,0,0,0,3.21-1.4,6.76,6.76,0,0,0,3.21-4.9,17.33,17.33,0,0,0,.22-2.67,9.37,9.37,0,0,0-1.22-5.22,7.48,7.48,0,0,0-3.16-2.72,12.57,12.57,0,0,0-4.35-1c-1.59-.09-3.16-.14-4.7-.14h-4.16Z"/></svg>